<svg xmlns="http://www.w3.org/2000/svg" viewBox="28.9 -871.2 2021.8 981.4" role="img" aria-label="书亭">
  <g fill="#14110E">
    <path d="M682.6 -809.6Q761.0 -802.4 811.2 -782.7Q861.4 -763.0 888.2 -737.2Q915.0 -711.4 922.2 -686.0Q929.4 -660.6 920.8 -641.5Q912.2 -622.4 892.5 -615.6Q872.9 -608.8 845.6 -620.8Q829.1 -651.9 800.1 -685.5Q771.1 -719.1 737.9 -749.6Q704.7 -780.1 674.2 -801.7ZM868.1 -373.6V-344.6H61.9L52.9 -373.6ZM730.0 -627.4V-598.5H134.9L125.9 -627.4ZM531.0 -831.1Q530.0 -821.6 523.3 -814.8Q516.5 -808.1 498.5 -805.6V47.8Q498.5 53.3 486.1 62.2Q473.7 71.0 455.0 77.6Q436.3 84.2 417.1 84.2H397.4V-844.7ZM670.8 -627.4 712.1 -674.8 806.9 -600.8Q801.9 -594.8 794.4 -592.1Q786.9 -589.3 772.8 -586.8L757.3 -357.5H660.8L680.3 -627.4ZM803.3 -373.6 856.7 -425.4 952.8 -345.9Q947.3 -339.9 938.1 -335.6Q928.8 -331.4 913.3 -329.9Q909.8 -240.2 902.3 -176.4Q894.8 -112.6 881.5 -73.4Q868.2 -34.2 845.6 -16.2Q825.0 0.8 795.9 8.9Q766.8 16.9 727.1 16.9Q727.6 -4.8 723.6 -22.2Q719.6 -39.6 707.0 -50.7Q694.5 -61.8 667.3 -71.4Q640.1 -80.9 608.1 -86.0L609.1 -99.9Q630.6 -98.4 658.0 -96.4Q685.5 -94.4 709.7 -93.2Q733.9 -91.9 743.9 -91.9Q767.3 -91.9 776.3 -99.9Q792.3 -114.9 801.1 -186.0Q809.8 -257.1 813.8 -373.6Z"/>
    <path transform="translate(1060.0 0)" d="M855.6 -786.1Q855.6 -786.1 866.4 -777.5Q877.2 -769.0 893.8 -755.1Q910.3 -741.3 928.7 -725.5Q947.0 -709.7 961.6 -695.6Q959.6 -687.6 952.3 -683.6Q945.1 -679.6 934.1 -679.6H51.9L43.4 -708.6H796.7ZM408.0 -847.2Q464.3 -844.4 497.0 -830.4Q529.7 -816.4 543.3 -797.3Q556.8 -778.3 555.5 -759.4Q554.2 -740.6 541.3 -727.2Q528.4 -713.9 509.0 -711.9Q489.5 -709.9 467.3 -724.5Q462.9 -756.1 442.7 -788.2Q422.5 -820.2 399.5 -840.2ZM553.6 -41.3Q553.6 -7.0 543.8 20.0Q534.0 47.0 503.2 63.8Q472.5 80.7 409.6 86.2Q408.1 62.4 401.9 44.2Q395.6 26.1 382.6 14.5Q369.6 2.9 345.8 -5.7Q322.1 -14.3 279.0 -20.3V-34.3Q279.0 -34.3 298.8 -33.3Q318.5 -32.3 346.0 -30.3Q373.6 -28.3 398.1 -27.3Q422.6 -26.3 431.6 -26.3Q445.5 -26.3 450.5 -30.5Q455.5 -34.8 455.5 -43.3V-239.3H553.6ZM826.3 -371.6 877.1 -422.5 966.7 -336.0Q961.2 -330.9 952.5 -328.9Q943.7 -326.9 928.7 -325.9Q909.1 -304.4 878.0 -277.1Q846.8 -249.8 821.7 -231.3L809.8 -238.2Q815.2 -256.3 820.4 -280.6Q825.5 -305.0 830.2 -329.8Q834.8 -354.6 837.3 -371.6ZM158.0 -430.7Q179.7 -375.6 179.3 -332.5Q178.9 -289.3 163.8 -260.8Q148.8 -232.2 126.7 -219.2Q105.1 -206.6 80.0 -210.8Q54.8 -214.9 46.3 -238.1Q38.8 -260.3 50.2 -277.5Q61.5 -294.6 81.2 -304.6Q107.6 -319.1 127.6 -353.7Q147.6 -388.3 142.6 -429.7ZM869.0 -371.6V-342.7H151.8V-371.6ZM675.1 -611.6 720.9 -662.4 822.6 -586.4Q818.1 -581.0 806.8 -575.2Q795.6 -569.4 780.6 -566.4V-431.6Q780.6 -428.6 766.7 -423.3Q752.8 -418.0 734.6 -413.2Q716.4 -408.5 701.3 -408.5H685.1V-611.6ZM312.4 -428.2Q312.4 -424.1 300.0 -417.3Q287.6 -410.5 268.9 -405.2Q250.2 -399.9 231.0 -399.9H217.4V-611.6V-652.9L318.4 -611.6H729.0V-582.6H312.4ZM729.5 -479.1V-450.1H271.5V-479.1ZM716.9 -313.1Q716.9 -313.1 726.4 -305.8Q736.0 -298.5 751.1 -286.7Q766.2 -274.9 782.5 -261.5Q798.9 -248.2 812.9 -235.7Q809.4 -219.7 786.4 -219.7H198.2L190.2 -248.7H664.0Z"/>
  </g>
</svg>
